<svg xmlns="http://www.w3.org/2000/svg" width="51.794" height="51.789" viewBox="0 0 51.794 51.789">
    <defs>
        <style>
            .cls-1,.cls-3{fill:#326c3b}.cls-1{stroke:#326c3b;stroke-width:5px}.cls-2{fill:#fff}.cls-4{stroke:none}.cls-5{fill:none}
        </style>
    </defs>
    <g id="AttendentIcon">
        <g id="Ellipse_4" class="cls-1" data-name="Ellipse 4">
            <ellipse cx="25.897" cy="25.894" class="cls-4" rx="25.897" ry="25.894"/>
            <ellipse cx="25.897" cy="25.894" class="cls-5" rx="23.397" ry="23.394"/>
        </g>
        <path id="Path_11" d="M22.437 0A22.437 22.437 0 1 1 0 22.437 22.437 22.437 0 0 1 22.437 0z" class="cls-2" data-name="Path 11" transform="translate(3.415 3.414)"/>
        <g id="Parking_Attendent" data-name="Parking Attendent" transform="translate(13.419 10.333)">
            <g id="policeman">
                <g id="Group_3" data-name="Group 3">
                    <path id="Path_3" d="M239.847 274.71c-2.917-1.122-3.759-1.458-4.039-1.515a.336.336 0 0 0-.225.056l-2.637 1.794a.293.293 0 0 0-.112.224.34.34 0 0 0 .056.225l1.347 1.346-1.515 1.514a.271.271 0 0 0 0 .393l1.346 1.739-1.851 3.7a.256.256 0 0 0 0 .281.426.426 0 0 0 .225.112h11.22a.265.265 0 0 0 .281-.28c.112-1.288.504-7.799-4.096-9.589z" class="cls-3" data-name="Path 3" transform="translate(-218.077 -253.674)"/>
                    <path id="Path_4" d="M44.825 279.7l1.346-1.739c.112-.112.056-.281 0-.392l-1.515-1.515L46 274.708c.056-.056.112-.168.056-.224a.423.423 0 0 0-.112-.225l-2.637-1.8a.337.337 0 0 0-.224-.056c-.224.056-1.066.393-4.039 1.515-4.6 1.851-4.208 8.358-4.1 9.648a.265.265 0 0 0 .28.28h11.22a.292.292 0 0 0 .224-.112.25.25 0 0 0 0-.281z" class="cls-3" data-name="Path 4" transform="translate(-34.893 -252.943)"/>
                    <path id="Path_5" d="M193.4 301.877l-1.514-1.907 1.458-1.459c.056-.056.056-.112.056-.224s-.056-.168-.056-.225l-1.627-1.626a.271.271 0 0 0-.392 0l-1.627 1.626a.272.272 0 0 0 0 .393l1.459 1.458-1.514 1.908a.419.419 0 0 0-.056.28l1.683 3.7a.318.318 0 0 0 .561 0l1.683-3.7a.348.348 0 0 0-.114-.224z" class="cls-3" data-name="Path 5" transform="translate(-178.531 -275.176)"/>
                    <path id="Path_6" d="M144.843 124.488a14.41 14.41 0 0 0-11.668 0c-.056.056-.112.112-.112.168a.337.337 0 0 0 .056.224c1.234 1.907 4.544 1.963 5.217 1.963h1.458c.673 0 3.983-.112 5.218-1.963a.339.339 0 0 0 .056-.224c-.113-.056-.168-.168-.225-.168z" class="cls-3" data-name="Path 6" transform="translate(-126.047 -114.447)"/>
                    <path id="Path_7" d="M130.176 163.437a6.859 6.859 0 0 0 6.788-6.843v-.449c0-.112-.056-.224-.168-.224a.246.246 0 0 0-.28.056c-1.627 1.627-4.6 1.8-5.5 1.8H129.5c-.9 0-3.871-.112-5.5-1.8a.246.246 0 0 0-.28-.056c-.112.056-.168.112-.168.224v.449a6.611 6.611 0 0 0 6.624 6.843z" class="cls-3" data-name="Path 7" transform="translate(-117.214 -144.758)"/>
                    <path id="Path_8" d="M95.2 7.741a.371.371 0 0 0 .337.056 16.606 16.606 0 0 1 13.857 0 .2.2 0 0 1 .112.056.206.206 0 0 0 .168-.056c.673-.617 1.178-1.066 1.347-1.234a.346.346 0 0 0 .056-.393.779.779 0 0 1-.168-.224 2.938 2.938 0 0 1-.841-1.459l-.112-.393c-.112-1.01-.168-1.4-1.178-1.514h-.28a7.019 7.019 0 0 1-4.1-1.459C103.28.112 102.832 0 102.5 0s-.785.112-1.907 1.122a7.018 7.018 0 0 1-4.1 1.459h-.281c-1.01.112-1.122.5-1.29 1.459l-.112.393a3.225 3.225 0 0 1-.842 1.459c-.056.056-.112.168-.168.224-.112.112-.056.28.056.393.224.166.673.615 1.344 1.232z" class="cls-3" data-name="Path 8" transform="translate(-89.533)"/>
                    <path id="Path_9" d="M136.039 99.756a.766.766 0 0 0 .168-.225l.112-.561c0-.112-.056-.28-.168-.28a18.569 18.569 0 0 0-6.563-1.346 18.252 18.252 0 0 0-6.564 1.346.309.309 0 0 0-.168.28l.112.561c0 .112.056.168.169.225.056 0 .056.056.112.056s.112 0 .112-.056a14.736 14.736 0 0 1 6.283-1.234 14.916 14.916 0 0 1 6.283 1.234z" class="cls-3" data-name="Path 9" transform="translate(-116.57 -90.388)"/>
                </g>
            </g>
        </g>
    </g>
</svg>
