<svg xmlns="http://www.w3.org/2000/svg" width="51.794" height="51.789" viewBox="0 0 51.794 51.789">
    <defs>
        <style>
            .cls-1,.cls-3{fill:#d97f04}.cls-1{stroke:#d97f04;stroke-width:5px}.cls-2{fill:#fff}.cls-4{stroke:none}.cls-5{fill:none}
        </style>
    </defs>
    <g id="ConstrctionIcon">
        <g id="Ellipse_4" class="cls-1" data-name="Ellipse 4">
            <ellipse cx="25.897" cy="25.894" class="cls-4" rx="25.897" ry="25.894"/>
            <ellipse cx="25.897" cy="25.894" class="cls-5" rx="23.397" ry="23.394"/>
        </g>
        <path id="Path_11" d="M22.437 0A22.437 22.437 0 1 1 0 22.437 22.437 22.437 0 0 1 22.437 0z" class="cls-2" data-name="Path 11" transform="translate(3.415 3.414)"/>
        <path id="Polygon_1" d="M17.63 3.427a2 2 0 0 1 3.551 0L37.3 34.528a2 2 0 0 1-1.776 2.92H3.289a2 2 0 0 1-1.776-2.92z" class="cls-3" data-name="Polygon 1" transform="translate(6.36 1.992)"/>
        <ellipse id="Ellipse_2" cx="3.293" cy="3.292" class="cls-2" data-name="Ellipse 2" rx="3.293" ry="3.292" transform="translate(22.31 14.218)"/>
        <path id="Path_1" d="M1538.426 197.614l2.925-3.622 6.277 2.52v3.152l7.529 4.106 1.294-2.818 5.391 5.368h-10.282l1.024-1.479h2.119z" class="cls-2" data-name="Path 1" transform="translate(-1520.744 -173.485)"/>
        <path id="Path_2" d="M1509.6 239.124l5.272-10.694 11.664 4.881-.475 7.19h-3.524v-4.793l-6.8-2.4-3.449 6.82z" class="cls-2" data-name="Path 2" transform="translate(-1497.804 -203.11)"/>
    </g>
</svg>
