<svg xmlns="http://www.w3.org/2000/svg" width="51.789" height="51.789" viewBox="0 0 51.789 51.789">
    <defs>
        <style>
            .cls-1,.cls-3,.cls-5{fill:#90309d}.cls-2{fill:#fff}.cls-4,.cls-5{stroke:none}
        </style>
    </defs>
    <g id="GarageIcon">
        <g id="Path_13" class="cls-1" data-name="Path 13">
            <path d="M25.894 49.289a23.32 23.32 0 0 1-16.542-6.852A23.32 23.32 0 0 1 2.5 25.894 23.32 23.32 0 0 1 9.352 9.352 23.32 23.32 0 0 1 25.894 2.5a23.32 23.32 0 0 1 16.542 6.852 23.32 23.32 0 0 1 6.853 16.542 23.32 23.32 0 0 1-6.852 16.542 23.32 23.32 0 0 1-16.543 6.853z" class="cls-4"/>
            <path d="M25.894 5a20.758 20.758 0 0 0-14.774 6.12A20.758 20.758 0 0 0 5 25.894a20.758 20.758 0 0 0 6.12 14.775 20.758 20.758 0 0 0 14.774 6.12 20.758 20.758 0 0 0 14.775-6.12 20.758 20.758 0 0 0 6.12-14.775 20.758 20.758 0 0 0-6.12-14.774A20.758 20.758 0 0 0 25.894 5m0-5C40.196 0 51.79 11.593 51.79 25.894c0 14.302-11.593 25.895-25.895 25.895C11.594 51.789 0 40.196 0 25.894 0 11.594 11.593 0 25.894 0z" class="cls-5"/>
        </g>
        <circle id="Ellipse_3" cx="22.437" cy="22.437" r="22.437" class="cls-2" data-name="Ellipse 3" transform="translate(3.414 3.414)"/>
        <path id="car-solid" d="M27.6 70.811h-3.3l-.918-2.53A6.186 6.186 0 0 0 17.636 64h-7.009a6.187 6.187 0 0 0-5.739 4.281l-.918 2.53H.666a.716.716 0 0 0-.642.907l.331 1.46a.678.678 0 0 0 .645.553h1.105A4.038 4.038 0 0 0 .886 76.65v2.919a4.091 4.091 0 0 0 .883 2.55v3.288a1.863 1.863 0 0 0 1.766 1.946H5.3a1.863 1.863 0 0 0 1.766-1.946v-1.946H21.2v1.946a1.863 1.863 0 0 0 1.766 1.946h1.766a1.863 1.863 0 0 0 1.766-1.946v-3.288a4.089 4.089 0 0 0 .883-2.55V76.65a4.04 4.04 0 0 0-1.218-2.919h1.108a.678.678 0 0 0 .642-.553l.331-1.46a.717.717 0 0 0-.644-.907zM8.168 69.727a2.665 2.665 0 0 1 2.46-1.835h7.009a2.665 2.665 0 0 1 2.46 1.835l1.1 3.03H7.068zM5.3 79.557a1.949 1.949 0 0 1 0-3.88c1.06 0 2.649 1.746 2.649 2.91s-1.588.97-2.649.97zm17.661 0c-1.06 0-2.649.194-2.649-.97s1.589-2.91 2.649-2.91a1.949 1.949 0 0 1 0 3.88z" class="cls-3" transform="translate(11.802 -47.207)"/>
        <g id="Group_5" data-name="Group 5" transform="translate(7.853 6.065)">
            <rect id="Rectangle_4" width="22.05" height="2.618" class="cls-3" data-name="Rectangle 4" rx="1.309" transform="rotate(30 8.95 33.42)"/>
            <rect id="Rectangle_5" width="21.636" height="2.618" class="cls-3" data-name="Rectangle 5" rx="1.309" transform="scale(-1) rotate(-33 -13.486 31.916)"/>
        </g>
    </g>
</svg>
