<svg xmlns="http://www.w3.org/2000/svg" width="91" height="91" viewBox="0 0 91 91">
    <defs>
        <style>
            .cls-1{fill:#fff}.cls-2,.cls-4{fill:#326c3b}.cls-3,.cls-4{stroke:none}.cls-5{filter:url(#Path_14)}
        </style>
        <filter id="Path_14" width="91" height="91" x="0" y="0" filterUnits="userSpaceOnUse">
            <feOffset dy="2"/>
            <feGaussianBlur result="blur" stdDeviation="1.5"/>
            <feFlood flood-opacity=".302"/>
            <feComposite in2="blur" operator="in"/>
            <feComposite in="SourceGraphic"/>
        </filter>
    </defs>
    <g id="ThumbsUp" transform="translate(-231.5 -699.5)">
        <g id="ThumbsUp-2" class="cls-5" data-name="ThumbsUp" transform="translate(231.5 699.5)">
            <g id="Path_14-2" class="cls-1" data-name="Path 14">
                <path d="M41 81c-5.4 0-10.639-1.057-15.57-3.143a39.868 39.868 0 0 1-12.714-8.573A39.868 39.868 0 0 1 4.143 56.57 39.749 39.749 0 0 1 1 41c0-5.4 1.057-10.639 3.143-15.57a39.868 39.868 0 0 1 8.573-12.714A39.868 39.868 0 0 1 25.43 4.143 39.749 39.749 0 0 1 41 1c5.4 0 10.639 1.057 15.57 3.143a39.868 39.868 0 0 1 12.714 8.573 39.868 39.868 0 0 1 8.573 12.715A39.749 39.749 0 0 1 81 41c0 6.57-1.59 12.921-4.724 18.875-3.277 6.227-8.231 11.494-14.327 15.23A40.062 40.062 0 0 1 41 81z" class="cls-3" transform="translate(4.5 2.5)"/>
                <path d="M41 2a38.873 38.873 0 0 0-27.577 11.423A38.873 38.873 0 0 0 2 41c0 5.266 1.03 10.373 3.064 15.18a38.873 38.873 0 0 0 8.359 12.397A38.873 38.873 0 0 0 41 80a39.062 39.062 0 0 0 20.426-5.747c5.943-3.643 10.772-8.775 13.965-14.844C78.449 53.6 80 47.406 80 41c0-5.266-1.03-10.373-3.064-15.18a38.873 38.873 0 0 0-8.359-12.397A38.873 38.873 0 0 0 41 2m0-2c22.644 0 41 18.356 41 41 0 6.884-1.696 13.371-4.84 19.341C70.443 73.108 56.76 82 41 82 18.356 82 0 63.644 0 41S18.356 0 41 0z" class="cls-4" transform="translate(4.5 2.5)"/>
            </g>
        </g>
        <path id="thumbs-up-solid" d="M8.125 17.5h-6.25A1.875 1.875 0 0 0 0 19.375v18.75A1.875 1.875 0 0 0 1.875 40h6.25A1.875 1.875 0 0 0 10 38.125v-18.75A1.875 1.875 0 0 0 8.125 17.5zM5 36.875A1.875 1.875 0 1 1 6.875 35 1.875 1.875 0 0 1 5 36.875zM30 6.363c0 3.314-2.029 5.173-2.6 7.387h7.947A4.668 4.668 0 0 1 40 18.289a5.656 5.656 0 0 1-1.519 3.844l-.009.009a6.526 6.526 0 0 1-.727 6.209 6.178 6.178 0 0 1-1.28 5.84 4.147 4.147 0 0 1-.48 3.487C34.391 39.968 30.439 40 27.1 40h-.222a22.427 22.427 0 0 1-9.341-2.479 12.3 12.3 0 0 0-4.113-1.264.938.938 0 0 1-.921-.937v-16.7a.936.936 0 0 1 .278-.666c3.095-3.058 4.426-6.3 6.962-8.837 1.157-1.159 1.577-2.909 1.984-4.6C22.072 3.07 22.8 0 24.375 0 26.25 0 30 .625 30 6.363z" class="cls-2" transform="translate(257 723)"/>
    </g>
</svg>
