<svg xmlns="http://www.w3.org/2000/svg" width="91" height="91" viewBox="0 0 91 91">
    <defs>
        <style>
            .cls-1{fill:#fff}.cls-2,.cls-4{fill:#962828}.cls-3,.cls-4{stroke:none}.cls-5{filter:url(#Path_14)}
        </style>
        <filter id="Path_14" width="91" height="91" x="0" y="0" filterUnits="userSpaceOnUse">
            <feOffset dy="2"/>
            <feGaussianBlur result="blur" stdDeviation="1.5"/>
            <feFlood flood-opacity=".302"/>
            <feComposite in2="blur" operator="in"/>
            <feComposite in="SourceGraphic"/>
        </filter>
    </defs>
    <g id="Thumbs_Down" data-name="Thumbs Down" transform="translate(-53.5 -699.5)">
        <g id="Group_8" class="cls-5" data-name="Group 8" transform="translate(53.5 699.5)">
            <g id="Path_14-2" class="cls-1" data-name="Path 14">
                <path d="M41 81c-5.4 0-10.639-1.057-15.57-3.143a39.868 39.868 0 0 1-12.714-8.573A39.868 39.868 0 0 1 4.143 56.57 39.749 39.749 0 0 1 1 41c0-5.4 1.057-10.639 3.143-15.57a39.868 39.868 0 0 1 8.573-12.714A39.868 39.868 0 0 1 25.43 4.143 39.749 39.749 0 0 1 41 1c5.4 0 10.639 1.057 15.57 3.143a39.868 39.868 0 0 1 12.714 8.573 39.868 39.868 0 0 1 8.573 12.715A39.749 39.749 0 0 1 81 41c0 6.57-1.59 12.921-4.724 18.875-3.277 6.227-8.231 11.494-14.327 15.23A40.062 40.062 0 0 1 41 81z" class="cls-3" transform="translate(4.5 2.5)"/>
                <path d="M41 2a38.873 38.873 0 0 0-27.577 11.423A38.873 38.873 0 0 0 2 41c0 5.266 1.03 10.373 3.064 15.18a38.873 38.873 0 0 0 8.359 12.397A38.873 38.873 0 0 0 41 80a39.062 39.062 0 0 0 20.426-5.747c5.943-3.643 10.772-8.775 13.965-14.844C78.449 53.6 80 47.406 80 41c0-5.266-1.03-10.373-3.064-15.18a38.873 38.873 0 0 0-8.359-12.397A38.873 38.873 0 0 0 41 2m0-2c22.644 0 41 18.356 41 41 0 6.884-1.696 13.371-4.84 19.341C70.443 73.108 56.76 82 41 82 18.356 82 0 63.644 0 41S18.356 0 41 0z" class="cls-4" transform="translate(4.5 2.5)"/>
            </g>
        </g>
        <path id="thumbs-down-solid" d="M0 4.375v18.75A1.875 1.875 0 0 0 1.875 25h6.25A1.875 1.875 0 0 0 10 23.125V4.375A1.875 1.875 0 0 0 8.125 2.5h-6.25A1.875 1.875 0 0 0 0 4.375zM3.125 20A1.875 1.875 0 1 1 5 21.875 1.875 1.875 0 0 1 3.125 20zm21.25 20c-1.577 0-2.3-3.07-2.651-4.515-.407-1.693-.827-3.443-1.984-4.6-2.537-2.541-3.867-5.779-6.962-8.837a.936.936 0 0 1-.278-.666V4.68a.938.938 0 0 1 .921-.937 12.293 12.293 0 0 0 4.113-1.264A22.428 22.428 0 0 1 26.875 0h.225c3.342 0 7.294.032 8.889 2.323a4.147 4.147 0 0 1 .48 3.487 6.178 6.178 0 0 1 1.28 5.84 6.526 6.526 0 0 1 .727 6.209l.009.009A5.657 5.657 0 0 1 40 21.711a4.668 4.668 0 0 1-4.653 4.539H27.4c.571 2.214 2.6 4.073 2.6 7.387C30 39.375 26.25 40 24.375 40z" class="cls-2" transform="translate(79 723)"/>
    </g>
</svg>
