<svg xmlns="http://www.w3.org/2000/svg" width="46.205" height="84.314" viewBox="0 0 46.205 84.314">
    <defs>
        <style>
            .cls-1,.cls-2,.cls-5{fill:#90309d}.cls-3{fill:#fff}.cls-4,.cls-5{stroke:none}
        </style>
    </defs>
    <g id="GaragePin" transform="translate(-239.845 -158.365)">
        <g id="empty_pin" data-name="empty pin" transform="translate(113.845 49.365)">
            <path id="Path_10" d="M3.533 1.576a2.077 2.077 0 0 1 4.031 0l4.387 37.041c.325 1.31 1.35 2.836 0 2.836H1.784c-1.35 0-2.029-1.526-1.7-2.836z" class="cls-1" data-name="Path 10" transform="rotate(180 77.326 96.657)"/>
            <g id="Path_13" class="cls-2" data-name="Path 13">
                <path d="M23.103 43.705a20.537 20.537 0 0 1-14.568-6.034A20.537 20.537 0 0 1 2.5 23.103 20.537 20.537 0 0 1 8.534 8.535 20.537 20.537 0 0 1 23.103 2.5 20.537 20.537 0 0 1 37.67 8.534a20.537 20.537 0 0 1 6.034 14.569 20.537 20.537 0 0 1-6.034 14.568 20.537 20.537 0 0 1-14.568 6.034z" class="cls-4" transform="translate(126 109)"/>
                <path d="M23.103 5a17.984 17.984 0 0 0-12.8 5.302A17.984 17.984 0 0 0 5 23.102c0 4.836 1.883 9.382 5.302 12.8a17.984 17.984 0 0 0 12.8 5.303c4.836 0 9.382-1.883 12.8-5.302a17.984 17.984 0 0 0 5.303-12.8c0-4.836-1.883-9.382-5.302-12.8A17.984 17.984 0 0 0 23.103 5m0-5c12.759 0 23.102 10.343 23.102 23.103 0 12.759-10.343 23.102-23.102 23.102C10.343 46.205 0 35.862 0 23.103 0 10.343 10.343 0 23.103 0z" class="cls-5" transform="translate(126 109)"/>
            </g>
            <circle id="Ellipse_3" cx="20.766" cy="20.766" r="20.766" class="cls-3" data-name="Ellipse 3" transform="translate(128.307 111.307)"/>
        </g>
        <g id="Garage" transform="translate(182 115)">
            <path id="car-solid" d="M25.132 69.629h-3.009l-.836-2.091A5.6 5.6 0 0 0 16.061 64H9.678a5.6 5.6 0 0 0-5.226 3.538l-.836 2.091H.607a.6.6 0 0 0-.585.749l.3 1.206a.6.6 0 0 0 .585.457h1.01a3.194 3.194 0 0 0-1.11 2.412v2.412a3.19 3.19 0 0 0 .8 2.107v2.717A1.608 1.608 0 0 0 3.22 83.3h1.608a1.608 1.608 0 0 0 1.608-1.608v-1.609H19.3v1.608a1.608 1.608 0 0 0 1.611 1.609h1.608a1.608 1.608 0 0 0 1.608-1.608v-2.719a3.188 3.188 0 0 0 .8-2.107v-2.412a3.2 3.2 0 0 0-1.109-2.412h1.009a.6.6 0 0 0 .585-.457l.3-1.206a.6.6 0 0 0-.586-.749zm-17.694-.9a2.413 2.413 0 0 1 2.24-1.516h6.383a2.413 2.413 0 0 1 2.24 1.516l1 2.5H6.437zm-2.61 8.123a1.6 1.6 0 1 1 0-3.206 3.094 3.094 0 0 1 2.412 2.4c.001.97-1.447.81-2.412.81zm16.083 0c-.965 0-2.412.16-2.412-.8a3.094 3.094 0 0 1 2.412-2.4 1.6 1.6 0 1 1 0 3.206z" class="cls-1" transform="translate(67.927 -3.6)"/>
            <g id="Group_5" data-name="Group 5" transform="translate(65.522 49.511)">
                <rect id="Rectangle_4" width="18.193" height="2.16" class="cls-1" data-name="Rectangle 4" rx="1.08" transform="rotate(30 7.386 27.573)"/>
                <rect id="Rectangle_5" width="17.852" height="2.16" class="cls-1" data-name="Rectangle 5" rx="1.08" transform="scale(-1) rotate(-33 -11.127 26.334)"/>
            </g>
        </g>
    </g>
</svg>
