<svg xmlns="http://www.w3.org/2000/svg" width="46.205" height="84.314" viewBox="0 0 46.205 84.314">
    <defs>
        <style>
            .cls-1,.cls-2{fill:#326c3b}.cls-2{stroke:#326c3b;stroke-width:5px}.cls-3{fill:#fff}.cls-4{stroke:none}.cls-5{fill:none}
        </style>
    </defs>
    <g id="ParkingAttendent" transform="translate(-219.845 -528.365)">
        <g id="StreetParkingPin" transform="translate(-70 250)">
            <g id="empty_pin" data-name="empty pin" transform="translate(163.845 169.365)">
                <path id="Path_10" d="M3.533 1.576a2.077 2.077 0 0 1 4.031 0l4.387 37.041c.325 1.31 1.35 2.836 0 2.836H1.784c-1.35 0-2.029-1.526-1.7-2.836z" class="cls-1" data-name="Path 10" transform="rotate(180 77.326 96.657)"/>
                <g id="Ellipse_4" class="cls-2" data-name="Ellipse 4" transform="translate(126 109)">
                    <circle cx="23.103" cy="23.103" r="23.103" class="cls-4"/>
                    <circle cx="23.103" cy="23.103" r="20.603" class="cls-5"/>
                </g>
                <path id="Path_11" d="M20.766 0A20.766 20.766 0 1 1 0 20.766 20.766 20.766 0 0 1 20.766 0z" class="cls-3" data-name="Path 11" transform="translate(128.307 111.307)"/>
            </g>
        </g>
        <g id="Parking_Attendent" data-name="Parking Attendent" transform="translate(162.659 475.064)">
            <g id="policeman" transform="translate(67.186 59.236)">
                <g id="Group_3" data-name="Group 3">
                    <path id="Path_3" d="M239.936 274.727c-2.951-1.135-3.8-1.475-4.086-1.532a.34.34 0 0 0-.227.057l-2.667 1.815a.3.3 0 0 0-.113.227.344.344 0 0 0 .056.227l1.362 1.362-1.532 1.532a.274.274 0 0 0 0 .4l1.361 1.759-1.872 3.746a.259.259 0 0 0 0 .284.431.431 0 0 0 .227.113h11.349a.268.268 0 0 0 .284-.284c.114-1.308.51-7.89-4.142-9.706z" class="cls-1" data-name="Path 3" transform="translate(-217.915 -253.447)"/>
                    <path id="Path_4" d="M44.94 279.785l1.362-1.76c.114-.113.057-.284 0-.4L44.77 276.1l1.362-1.362c.057-.056.113-.17.057-.227a.428.428 0 0 0-.113-.227l-2.667-1.816a.341.341 0 0 0-.227-.057c-.227.057-1.078.4-4.086 1.532-4.653 1.873-4.256 8.455-4.143 9.76a.268.268 0 0 0 .284.284h11.348a.3.3 0 0 0 .227-.113.253.253 0 0 0 0-.284z" class="cls-1" data-name="Path 4" transform="translate(-34.893 -252.717)"/>
                    <path id="Path_5" d="M193.444 301.941l-1.532-1.929 1.475-1.476c.056-.057.056-.113.056-.227s-.056-.17-.056-.227l-1.646-1.645a.274.274 0 0 0-.4 0l-1.646 1.645a.275.275 0 0 0 0 .4l1.475 1.475-1.532 1.93a.425.425 0 0 0-.057.284l1.7 3.745a.321.321 0 0 0 .568 0l1.7-3.745a.352.352 0 0 0-.105-.23z" class="cls-1" data-name="Path 5" transform="translate(-178.404 -274.93)"/>
                    <path id="Path_6" d="M144.979 124.5a14.575 14.575 0 0 0-11.8 0c-.057.057-.114.114-.114.17a.341.341 0 0 0 .057.227c1.249 1.929 4.6 1.986 5.277 1.986h1.475c.681 0 4.029-.114 5.278-1.986a.343.343 0 0 0 .056-.227c-.116-.054-.172-.17-.229-.17z" class="cls-1" data-name="Path 6" transform="translate(-125.966 -114.345)"/>
                    <path id="Path_7" d="M130.252 163.525a6.938 6.938 0 0 0 6.866-6.923v-.454c0-.113-.056-.227-.17-.227a.249.249 0 0 0-.284.057c-1.646 1.646-4.653 1.816-5.561 1.816h-1.532c-.908 0-3.915-.114-5.561-1.816a.249.249 0 0 0-.284-.057c-.114.057-.17.114-.17.227v.454a6.687 6.687 0 0 0 6.696 6.923z" class="cls-1" data-name="Path 7" transform="translate(-117.141 -144.628)"/>
                    <path id="Path_8" d="M95.219 7.831a.375.375 0 0 0 .341.057 16.8 16.8 0 0 1 14.016 0 .2.2 0 0 1 .114.057.208.208 0 0 0 .17-.057c.681-.624 1.191-1.078 1.362-1.248a.35.35 0 0 0 .057-.4.788.788 0 0 1-.17-.227 2.973 2.973 0 0 1-.851-1.475l-.114-.4c-.114-1.021-.17-1.419-1.191-1.532h-.284a7.1 7.1 0 0 1-4.143-1.475C103.39.114 102.937 0 102.6 0s-.794.114-1.929 1.135a7.1 7.1 0 0 1-4.147 1.475h-.284c-1.021.113-1.135.511-1.3 1.475l-.114.4a3.263 3.263 0 0 1-.851 1.475c-.057.057-.113.17-.17.227-.114.114-.057.284.057.4.222.166.676.62 1.357 1.244z" class="cls-1" data-name="Path 8" transform="translate(-89.485)"/>
                    <path id="Path_9" d="M136.191 99.784a.775.775 0 0 0 .17-.227l.114-.568c0-.113-.056-.284-.17-.284a18.782 18.782 0 0 0-6.639-1.362 18.461 18.461 0 0 0-6.64 1.362.312.312 0 0 0-.17.284l.113.568c0 .114.057.17.17.227.057 0 .057.057.113.057s.114 0 .114-.057a14.905 14.905 0 0 1 6.356-1.249 15.087 15.087 0 0 1 6.355 1.249z" class="cls-1" data-name="Path 9" transform="translate(-116.498 -90.307)"/>
                </g>
            </g>
        </g>
    </g>
</svg>
